<?xml version="1.0" encoding="utf-8"?>
<!-- Generator: Adobe Illustrator 16.0.0, SVG Export Plug-In . SVG Version: 6.00 Build 0)  -->
<!DOCTYPE svg PUBLIC "-//W3C//DTD SVG 1.1//EN" "http://www.w3.org/Graphics/SVG/1.1/DTD/svg11.dtd">
<svg version="1.1" id="レイヤー_1" xmlns="http://www.w3.org/2000/svg" xmlns:xlink="http://www.w3.org/1999/xlink" x="0px"
	 y="0px" width="27px" height="17px" viewBox="0 0 27 17" enable-background="new 0 0 27 17" xml:space="preserve">
<path fill="#00D2FF" d="M23.5,13.5h-20v-10h20V13.5z M4.5,12.5h18v-8h-18V12.5z"/>
<g>
	<polygon fill="#00D2FF" points="26,16 23,16 23,17 26,17 27,17 27,16 27,13 26,13 	"/>
	<polygon fill="#00D2FF" points="1,13 0,13 0,16 0,17 1,17 4,17 4,16 1,16 	"/>
	<polygon fill="#00D2FF" points="0,0 0,1 0,4 1,4 1,1 4,1 4,0 1,0 	"/>
	<polygon fill="#00D2FF" points="26,0 23,0 23,1 26,1 26,4 27,4 27,1 27,0 	"/>
</g>
</svg>
