<?xml version="1.0" encoding="utf-8"?>
<!-- Generator: Adobe Illustrator 16.0.0, SVG Export Plug-In . SVG Version: 6.00 Build 0)  -->
<!DOCTYPE svg PUBLIC "-//W3C//DTD SVG 1.1//EN" "http://www.w3.org/Graphics/SVG/1.1/DTD/svg11.dtd">
<svg version="1.1" id="レイヤー_1" xmlns="http://www.w3.org/2000/svg" xmlns:xlink="http://www.w3.org/1999/xlink" x="0px"
	 y="0px" width="32px" height="23px" viewBox="0 0 32 23" enable-background="new 0 0 32 23" xml:space="preserve">
<g>
	<path fill="none" stroke="#00D2FF" stroke-linecap="round" stroke-linejoin="round" stroke-miterlimit="10" d="M12.033,5.045
		c0,0-0.014-0.063-0.023-0.155C12,4.798,12.046,4.687,12.046,4.687c0.676-1.94,1.549-3.046,1.878-3.201
		c0.329-0.155,1.375-0.183,1.859-0.183c0.485,0,1.532,0.027,1.86,0.183c0.33,0.155,1.201,1.261,1.879,3.201
		c0,0,0.045,0.112,0.035,0.203c-0.01,0.092-0.021,0.155-0.021,0.155H12.033z"/>
	
		<line fill="none" stroke="#00D2FF" stroke-linecap="round" stroke-linejoin="round" stroke-miterlimit="10" x1="7.317" y1="3.935" x2="1.2" y2="3.935"/>
	
		<rect x="3.515" y="5.335" fill="none" stroke="#00D2FF" stroke-linecap="round" stroke-linejoin="round" stroke-miterlimit="10" width="1.487" height="1.239"/>
	
		<line fill="none" stroke="#00D2FF" stroke-linecap="round" stroke-linejoin="round" stroke-miterlimit="10" x1="4.258" y1="5.334" x2="4.258" y2="3.935"/>
	
		<circle fill="none" stroke="#00D2FF" stroke-linecap="round" stroke-linejoin="round" stroke-miterlimit="10" cx="6.488" cy="14.15" r="0.437"/>
	<polyline fill="none" stroke="#00D2FF" stroke-linecap="round" stroke-linejoin="round" stroke-miterlimit="10" points="
		27.129,6.574 15.784,6.574 5.002,6.574 	"/>
	<polyline fill="none" stroke="#00D2FF" stroke-linecap="round" stroke-linejoin="round" stroke-miterlimit="10" points="
		23.199,10.565 15.785,10.565 8.37,10.565 	"/>
	
		<line fill="none" stroke="#00D2FF" stroke-linecap="round" stroke-linejoin="round" stroke-miterlimit="10" x1="24.814" y1="3.935" x2="30.932" y2="3.935"/>
	
		<rect x="27.129" y="5.335" fill="none" stroke="#00D2FF" stroke-linecap="round" stroke-linejoin="round" stroke-miterlimit="10" width="1.488" height="1.239"/>
	
		<line fill="none" stroke="#00D2FF" stroke-linecap="round" stroke-linejoin="round" stroke-miterlimit="10" x1="27.873" y1="5.334" x2="27.873" y2="3.935"/>
	<path fill="none" stroke="#00D2FF" stroke-linecap="round" stroke-linejoin="round" stroke-miterlimit="10" d="M25.08,14.15
		l-2.348-4.477c-0.424-0.729-0.752-1.637-1.803-1.637h-5.146h-5.146c-1.049,0-1.378,0.909-1.802,1.637L6.487,14.15"/>
	
		<circle fill="none" stroke="#00D2FF" stroke-linecap="round" stroke-linejoin="round" stroke-miterlimit="10" cx="25.082" cy="14.15" r="0.437"/>
</g>
<polygon fill="#00D2FF" points="31.199,19.52 26.279,17.05 26.279,19.027 6.566,19.027 6.566,17.05 1.647,19.52 6.566,21.99 
	6.566,20.013 26.279,20.013 26.279,21.99 "/>
</svg>
